<?xml version="1.0" encoding="UTF-8" standalone="no"?>
<!DOCTYPE svg PUBLIC "-//W3C//DTD SVG 1.1//EN" "http://www.w3.org/Graphics/SVG/1.1/DTD/svg11.dtd">
<svg width="100%" height="100%" viewBox="0 0 2298 239" version="1.1" xmlns="http://www.w3.org/2000/svg" xmlns:xlink="http://www.w3.org/1999/xlink" xml:space="preserve" xmlns:serif="http://www.serif.com/" style="fill-rule:evenodd;clip-rule:evenodd;stroke-linejoin:round;stroke-miterlimit:1.41421;">
    <g id="Artboard1" transform="matrix(1.79473,0,0,0.297909,0,0)">
        <rect x="0" y="0" width="1280" height="800" style="fill:none;"/>
        <g transform="matrix(0.239184,0,0,1.44095,-155.865,-78.6861)">
            <path d="M962.695,89.847C1035.13,90.192 1105.68,125.642 1149.13,183.376C1192.74,241.311 1207.45,320.181 1186.41,390.861C1166.65,457.245 1116.03,513.571 1051.74,540.318C995.083,563.892 928.917,563.944 872.136,540.318C808.424,513.809 757.657,457.913 737.674,391.552C720.488,334.479 726.012,270.896 753.409,217.439C791.432,143.247 870.699,91.813 956.655,89.905C958.667,89.86 960.678,89.844 962.695,89.847ZM961.234,106.186C906.33,106.447 852.093,128.061 812.156,165.913C762.05,213.403 736.544,285.387 746.223,354.47C754.845,416.006 791.317,472.909 843.472,506.802C890.036,537.062 948.417,548.446 1003.16,537.945C1069.42,525.235 1128.72,479.711 1158.28,418.411C1187.48,357.845 1186.59,283.816 1155.32,223.719C1120.87,157.488 1050.93,110.906 974.538,106.543C970.11,106.29 965.666,106.179 961.234,106.186Z" style="fill:white;fill-rule:nonzero;stroke:white;stroke-width:12.13px;"/>
        </g>
        <g transform="matrix(0.267086,0,0,1.60904,-86.3964,688.98)">
            <g transform="matrix(1,0,0,1,-58.8355,-515.727)">
                <path d="M636.403,178.6C666.399,178.884 695.439,199.101 705.597,227.916C708.315,235.627 709.699,243.821 709.776,251.973C709.852,275.877 709.778,299.782 709.778,323.686C709.673,356.63 685.68,388.205 652.144,395.733C633.294,399.964 612.81,396.437 596.501,386.116C575.699,372.951 562.316,349.104 562.078,324.149C562.002,300.245 562.076,276.34 562.076,252.436C562.172,222.297 582.318,193.029 611.394,182.779C619.403,179.956 627.902,178.573 636.403,178.6ZM691.801,241.971C687.917,222.547 673.69,205.248 654.507,198.619C648.431,196.519 642.015,195.496 635.558,195.516C609.479,195.764 585.139,215.649 579.993,241.971L622.049,241.971C625.924,241.971 629.069,245.117 629.069,248.992L629.069,252.502C629.069,256.377 625.924,259.523 622.049,259.523L578.973,259.523C578.967,261.823 578.962,264.123 578.958,266.423L622.049,266.423C625.924,266.423 629.069,269.569 629.069,273.444L629.069,276.955C629.069,280.829 625.924,283.975 622.049,283.975L578.938,283.975C578.937,286.27 578.937,288.565 578.937,290.86L622.049,290.86C625.924,290.86 629.069,294.006 629.069,297.881L629.069,301.391C629.069,305.266 625.924,308.412 622.049,308.412L578.955,308.412C578.959,310.707 578.964,313.001 578.97,315.296L622.049,315.296C625.924,315.296 629.069,318.442 629.069,322.317L629.069,325.827C629.069,329.702 625.924,332.848 622.049,332.848L579.818,332.848C583.517,353.7 599.274,372.176 619.674,378.251C638.699,383.916 660.508,378.72 674.949,365.113C683.995,356.591 690.034,345.148 692.086,332.848L649.806,332.848C645.931,332.848 642.785,329.702 642.785,325.827L642.785,322.317C642.785,318.442 645.93,315.296 649.806,315.296L692.884,315.296C692.89,313.001 692.895,310.707 692.899,308.412L649.806,308.412C645.931,308.412 642.785,305.266 642.785,301.391L642.785,297.881C642.785,294.006 645.93,290.86 649.806,290.86L692.917,290.86C692.917,288.565 692.917,286.27 692.916,283.975L649.806,283.975C645.931,283.975 642.785,280.829 642.785,276.955L642.785,273.444C642.785,269.569 645.93,266.423 649.806,266.423L692.896,266.423C692.892,264.123 692.887,261.823 692.881,259.523L649.806,259.523C645.931,259.523 642.785,256.377 642.785,252.502L642.785,248.992C642.785,245.117 645.93,241.971 649.806,241.971L691.801,241.971Z" style="fill:white;stroke:white;stroke-width:2.09px;"/>
            </g>
            <g transform="matrix(1,0,0,1,-58.8355,-515.727)">
                <path d="M622.437,426.925C609.597,425.388 597.038,421.537 585.61,415.504C551.821,397.667 529.089,360.962 529.028,321.763L529.028,284.54C529.152,281.916 529.572,281.208 530.37,279.967C533.502,275.094 542.098,275.027 545.004,280.664C545.617,281.853 545.879,283.179 545.944,284.54C545.944,301.825 544.458,319.567 547.057,335.867C552.961,372.894 584.101,404.783 623.072,409.993C650.698,413.686 679.871,403.521 699.215,383.356C714.884,367.023 723.961,344.65 723.994,321.751L723.994,284.54C724.238,279.426 728.958,275.262 734.446,276.32C738.122,277.399 740.726,280.656 740.911,284.54C740.911,302.488 742.297,320.832 739.689,337.873C737.307,353.442 731.181,368.248 722.227,381.182L760.235,447.013L783.38,447.013C787.715,447.014 791.234,450.533 791.234,454.867L791.234,458.794C791.234,463.128 787.715,466.647 783.38,466.648L729.097,466.648C724.762,466.648 721.243,463.129 721.243,458.794L721.243,454.867C721.243,450.532 724.762,447.013 729.097,447.013L736.739,447.013L708.245,397.659C692.241,413.154 671.451,423.919 648.446,426.847C646.564,427.086 644.676,427.274 642.785,427.411L642.785,447.013L662.111,447.013C666.446,447.013 669.965,450.532 669.965,454.867L669.965,458.794C669.965,463.129 666.446,466.648 662.111,466.648L607.828,466.648C603.493,466.648 599.974,463.129 599.974,458.794L599.974,454.867C599.974,450.532 603.493,447.013 607.828,447.013L622.437,447.013L622.437,426.925Z" style="fill:white;stroke:white;stroke-width:2.09px;"/>
            </g>
        </g>
        <g transform="matrix(0.799764,0,0,4.81812,-347.383,-1696.9)">
            <g transform="matrix(2.24182,0,0,2.24182,633.42,488.988)">
                <text x="0px" y="0px" style="font-family:'FuturaBT-Heavy', 'Futura Hv BT', sans-serif;font-size:75.387px;fill:white;stroke:white;stroke-width:0.31px;">RADIO</text>
            </g>
            <g transform="matrix(2.24182,0,0,2.24182,1200.95,488.658)">
                <text x="0px" y="0px" style="font-family:'FuturaBT-Light', 'Futura Lt BT', sans-serif;font-size:75.387px;fill:white;stroke:white;stroke-width:0.31px;">UNICARIBE</text>
            </g>
        </g>
    </g>
</svg>
