<?xml version="1.0" encoding="UTF-8" standalone="no"?>
<!DOCTYPE svg PUBLIC "-//W3C//DTD SVG 1.1//EN" "http://www.w3.org/Graphics/SVG/1.1/DTD/svg11.dtd">
<svg width="100%" height="100%" viewBox="0 0 18 32" version="1.1" xmlns="http://www.w3.org/2000/svg" xmlns:xlink="http://www.w3.org/1999/xlink" xml:space="preserve" xmlns:serif="http://www.serif.com/" style="fill-rule:evenodd;clip-rule:evenodd;stroke-linejoin:round;stroke-miterlimit:1.41421;">
    <path d="M6.24,3.12C6.24,1.398 4.842,0 3.12,0C1.398,0 0,1.398 0,3.12L0,28.79C0,30.512 1.398,31.91 3.12,31.91C4.842,31.91 6.24,30.512 6.24,28.79L6.24,3.12Z" style="fill:rgb(138,247,116);"/>
    <path d="M17.67,3.12C17.67,1.398 16.272,0 14.55,0C12.828,0 11.43,1.398 11.43,3.12L11.43,28.79C11.43,30.512 12.828,31.91 14.55,31.91C16.272,31.91 17.67,30.512 17.67,28.79L17.67,3.12Z" style="fill:rgb(138,247,116);"/>
</svg>
